<svg width="10" height="10" viewBox="0 0 10 10" fill="none" xmlns="http://www.w3.org/2000/svg">
<path d="M9.72004 8.3702C10.095 8.74516 10.095 9.34508 9.72004 9.72004C9.53506 9.90501 9.29009 10 9.04512 10C8.80015 10 8.55518 9.90501 8.3702 9.72004L5.00062 6.35046L1.63105 9.72004C1.44107 9.90501 1.2011 10 0.95613 10C0.711161 10 0.466192 9.90501 0.281215 9.72004C-0.0937383 9.34508 -0.0937383 8.74516 0.281215 8.3702L3.65079 5.00062L0.281215 1.63105C-0.0937383 1.25609 -0.0937383 0.656168 0.281215 0.281215C0.651169 -0.0937383 1.25609 -0.0937383 1.63105 0.281215L5.00062 3.65079L8.3702 0.281215C8.74516 -0.0937383 9.34508 -0.0937383 9.72004 0.281215C10.095 0.651169 10.095 1.25609 9.72004 1.63105L6.35046 5.00062L9.72004 8.3702Z" fill="#000"/>
</svg>
