<svg width="90" height="54" viewBox="0 0 90 54" fill="none" xmlns="http://www.w3.org/2000/svg">
<path d="M45 0C27.7865 0 12.1885 9.477 0.69516 24.84C-0.23172 26.109 -0.23172 27.864 0.69516 29.133C12.1885 44.523 27.7865 54 45 54C62.2135 54 77.8115 44.523 89.3048 29.16C90.2317 27.891 90.2317 26.136 89.3048 24.867C77.8115 9.477 62.2135 0 45 0ZM46.2447 46.008C34.8308 46.737 25.4031 37.26 26.1181 25.758C26.7008 16.281 34.3541 8.586 43.7818 7.992C55.1957 7.263 64.6234 16.74 63.9083 28.242C63.2993 37.719 55.6459 45.414 46.2447 46.008ZM45.6621 37.233C39.5182 37.611 34.4336 32.535 34.8308 26.325C35.1486 21.222 39.2798 17.091 44.3644 16.74C50.5083 16.362 55.5929 21.438 55.1957 27.648C54.8514 32.778 50.7202 36.909 45.6621 37.233Z" fill="#999999"/>
</svg>
