<svg width="90" height="65" viewBox="0 0 90 65" fill="none" xmlns="http://www.w3.org/2000/svg">
<path d="M73.7794 58.7789L16.218 1.21933L16.2057 1.20527C15.8941 0.896173 15.5246 0.651486 15.1185 0.485178C14.7123 0.318869 14.2773 0.234194 13.8384 0.23599C13.3994 0.237785 12.9652 0.326016 12.5603 0.495642C12.1555 0.665269 11.7881 0.91297 11.479 1.2246C11.1699 1.53624 10.9252 1.9057 10.7589 2.31189C10.5926 2.71809 10.5079 3.15307 10.5097 3.59199C10.5133 4.47843 10.869 5.32712 11.4983 5.95136L16.538 10.991C10.4262 15.1768 5.16556 20.4858 1.03582 26.6355C0.361435 27.6312 0.000976562 28.8062 0.000976562 30.0088C0.000976562 31.2114 0.361435 32.3863 1.03582 33.382C11.5774 48.9844 28.2889 58.125 45.0005 58.0107C50.4136 58.0303 55.7907 57.1292 60.9016 55.3459L69.0597 63.5039C69.6882 64.1122 70.5303 64.4496 71.4049 64.4436C72.2796 64.4377 73.117 64.0888 73.7372 63.4721C74.3574 62.8553 74.711 62.0198 74.7218 61.1452C74.7326 60.2706 74.3999 59.4267 73.7952 58.7947L73.7794 58.7789ZM45.0005 48.9387C41.8343 48.9375 38.7189 48.1428 35.939 46.6273C33.1591 45.1118 30.8033 42.9238 29.087 40.2632C27.3706 37.6025 26.3484 34.5542 26.1138 31.3967C25.8792 28.2392 26.4397 25.0733 27.744 22.1883L33.0087 27.4529C32.5846 29.4512 32.6666 31.5238 33.2471 33.4823C33.8276 35.4409 34.8882 37.2233 36.3327 38.6678C37.7771 40.1123 39.5596 41.1729 41.5182 41.7534C43.4767 42.3339 45.5493 42.4159 47.5475 41.9918L52.8122 47.2564C50.3584 48.369 47.6947 48.9427 45.0005 48.9387Z" fill="#999999"/>
<path d="M88.9654 26.6267C78.4238 11.0156 61.7123 1.87496 45.0008 1.98922C39.5876 1.96961 34.2106 2.87074 29.0996 4.65406L37.1855 12.74C40.6943 11.1521 44.6036 10.6713 48.3926 11.3616C52.1815 12.0519 55.6701 13.8806 58.3933 16.6039C61.1166 19.3272 62.9453 22.8157 63.6356 26.6047C64.3259 30.3936 63.8451 34.3029 62.2572 37.8117L73.4615 49.016C79.5743 44.8308 84.8357 39.5217 88.9654 33.3714C89.6394 32.3759 89.9997 31.2013 89.9997 29.9991C89.9997 28.7969 89.6394 27.6222 88.9654 26.6267Z" fill="#999999"/>
<path d="M45.0002 17.741C44.1442 17.7411 43.2905 17.8306 42.4531 18.0082L56.992 32.5453C57.3711 30.7592 57.3464 28.9109 56.9198 27.1356C56.4932 25.3602 55.6753 23.7026 54.5261 22.2838C53.3768 20.8649 51.9251 19.7208 50.277 18.9348C48.6289 18.1488 46.8261 17.741 45.0002 17.741Z" fill="#999999"/>
</svg>
